<?xml version="1.0" encoding="UTF-8" standalone="no"?>
<!-- Generator: Adobe Illustrator 19.0.0, SVG Export Plug-In . SVG Version: 6.00 Build 0)  -->

<svg
   xmlns:dc="http://purl.org/dc/elements/1.1/"
   xmlns:cc="http://creativecommons.org/ns#"
   xmlns:rdf="http://www.w3.org/1999/02/22-rdf-syntax-ns#"
   xmlns:svg="http://www.w3.org/2000/svg"
   xmlns="http://www.w3.org/2000/svg"
   xmlns:sodipodi="http://sodipodi.sourceforge.net/DTD/sodipodi-0.dtd"
   xmlns:inkscape="http://www.inkscape.org/namespaces/inkscape"
   version="1.1"
   id="Layer_1"
   x="0px"
   y="0px"
   viewBox="0 0 512 512"
   style="enable-background:new 0 0 512 512;"
   xml:space="preserve"
   sodipodi:docname="gallery+bird.svg"
   inkscape:version="0.92.1 r15371"><metadata
     id="metadata49"><rdf:RDF><cc:Work
         rdf:about=""><dc:format>image/svg+xml</dc:format><dc:type
           rdf:resource="http://purl.org/dc/dcmitype/StillImage" /><dc:title></dc:title></cc:Work></rdf:RDF></metadata><defs
     id="defs47" /><sodipodi:namedview
     pagecolor="#ffffff"
     bordercolor="#666666"
     borderopacity="1"
     objecttolerance="10"
     gridtolerance="10"
     guidetolerance="10"
     inkscape:pageopacity="0"
     inkscape:pageshadow="2"
     inkscape:window-width="1858"
     inkscape:window-height="1057"
     id="namedview45"
     showgrid="false"
     inkscape:zoom="0.70710678"
     inkscape:cx="333.73014"
     inkscape:cy="167.95094"
     inkscape:window-x="-8"
     inkscape:window-y="-8"
     inkscape:window-maximized="1"
     inkscape:current-layer="Layer_1" /><rect
     style="opacity:0.98000004;fill:#d8f6de;fill-opacity:1;stroke:none;stroke-width:0.58899999;stroke-miterlimit:4;stroke-dasharray:none;stroke-opacity:1"
     id="rect4687"
     width="409.617"
     height="332.79999"
     x="17.066999"
     y="123.733"
     inkscape:export-xdpi="93.57"
     inkscape:export-ydpi="93.57" /><path
     d="m 494.933,38.4 h -409.6 c -9.412,0 -17.067,7.654 -17.067,17.067 V 72.534 H 51.2 c -9.412,0 -17.067,7.654 -17.067,17.067 v 17.067 H 17.067 C 7.654,106.667 0,114.321 0,123.733 v 332.8 c 0,9.412 7.654,17.067 17.067,17.067 h 409.6 c 9.412,0 17.067,-7.654 17.067,-17.067 V 439.466 H 460.8 c 9.412,0 17.067,-7.654 17.067,-17.067 v -17.067 h 17.067 c 9.412,0 17.067,-7.654 17.067,-17.067 V 55.465 C 512,46.054 504.346,38.4 494.933,38.4 Z M 17.067,123.733 h 409.6 c 0.003,102.37767 0.0104,204.75533 0.018,307.133 0,0.017 -0.017,0.043 -0.017,0.068 0,0.025 0.016,0.051 0.016,0.076 v 25.523 H 17.067 c 0,-110.93333 0,-221.86667 0,-332.8 z M 460.8,422.4 H 443.733 V 123.733 c 0,-9.412 -7.654,-17.067 -17.067,-17.067 H 51.2 V 89.6 h 409.6 z m 34.133,-34.133 H 477.866 V 89.6 c 0,-9.412 -7.654,-17.067 -17.067,-17.067 H 85.333 V 55.467 h 409.6 z"
     id="path2"
     inkscape:connector-curvature="0"
     sodipodi:nodetypes="ssscssccssssscsscsscscccsscccccssccccccsscccc"
     style="stroke:#000000"
     inkscape:export-xdpi="93.57"
     inkscape:export-ydpi="93.57" /><g
     id="g12"><g
       id="g10" /></g><g
     id="g14" /><g
     id="g16" /><g
     id="g18" /><g
     id="g20" /><g
     id="g22" /><g
     id="g24" /><g
     id="g26" /><g
     id="g28" /><g
     id="g30" /><g
     id="g32" /><g
     id="g34" /><g
     id="g36" /><g
     id="g38" /><g
     id="g40" /><g
     id="g42" /><g
     id="g4704"
     transform="matrix(1.0528034,0,0,1.0528034,-884.93655,83.233167)"
     inkscape:export-xdpi="93.57"
     inkscape:export-ydpi="93.57"><g
       transform="translate(791.86441,-49.898305)"
       id="g4534"><path
         id="path4530"
         d="m 216,404 v -36.824 c 0,-5.396 -2.6,-9.76 -8,-9.76 -5.4,0 -8,4.368 -8,9.76 V 404 Z"
         style="fill:#e2854c"
         inkscape:connector-curvature="0" /><path
         id="path4532"
         d="m 248,404 v -36.824 c 0,-5.396 -2.6,-9.76 -8,-9.76 -5.4,0 -8,4.368 -8,9.76 V 404 Z"
         style="fill:#e2854c"
         inkscape:connector-curvature="0" /></g><path
       id="path4536"
       d="m 1037.7044,323.07769 v 0 c -39.56799,0 -87.49999,-12.444 -138.61599,-35.988 -4.168,-1.916 -6.432,-6.48399 -5.452,-10.956 0.98,-4.484 4.944,-7.676 9.536,-7.676 65.884,0 91.34,-59.252 115.95999,-116.564 22.344,-52.003995 46.18,-105.791995 100.732,-105.791995 28,0 60,16 80,32 -4,0 -16.916,3.48 -20.788,4.512 -18.528,4.92 -20.652,37.884005 -23.108,76.055995 -2.672,41.516 -5.716,88.576 -29.852,124.952 -17.128,25.812 -47.708,39.456 -88.412,39.456 z"
       style="fill:#356178"
       inkscape:connector-curvature="0" /><path
       id="path4538"
       d="m 1179.0764,82.613695 c 0.312,-0.084 0.568,-0.268 0.856,-0.384 -77.684,-1.62 -31.168,292.448005 -285.59599,200.003995 0.936,2.08 2.564,3.844 4.752,4.852 51.116,23.544 99.056,35.988 138.61599,35.988 40.704,0 71.284,-13.648 88.412,-39.46 24.136,-36.37599 27.18,-83.432 29.852,-124.952 2.456,-38.16399 4.58,-71.127995 23.108,-76.047995 z"
       style="fill:#2d5266"
       inkscape:connector-curvature="0" /><path
       id="path4540"
       d="m 1154.1764,154.14969 c -1.072,-1.068 -2.384,-1.888 -3.824,-2.364 -7.98,-2.65199 -16.364,-4.00399 -24.896,-4.00399 -40.268,0 -77.072,29.388 -89.5,71.468 -9.744,32.992 -4.068,67.272 15.564,94.048 0.464,0.628 1.02,1.22 1.62,1.72 l 7.552,6.292 c 29.252,-4.308 51.712,-17.012 65.42,-37.68401 24.132,-36.37599 27.176,-83.432 29.848,-124.952 0.056,-0.86 0.108,-1.708 0.172,-2.57599 z"
       style="fill:#4681a0"
       inkscape:connector-curvature="0" /><path
       id="path4542"
       d="m 1154.1764,154.14969 c -1.072,-1.068 -2.384,-1.888 -3.824,-2.364 -6.556,-2.17599 -13.392,-3.428 -20.348,-3.824 -17.756,49.976 -37.436,114.392 -91.916,140.488 3.304,8.76 7.764,17.124 13.424,24.848 0.464,0.628 1.02,1.22 1.62,1.72 l 7.552,6.292 c 21.892,-3.228 39.972,-11.152 53.432,-23.604 0.048,-0.04 0.088,-0.084 0.136,-0.12 2.076,-1.924 4.012,-3.984 5.864,-6.12 0.32,-0.38 0.636,-0.764 0.952,-1.148 1.776,-2.132 3.476,-4.344 5.032,-6.688 24.136,-36.376 27.18,-83.432 29.852,-124.952 0.056,-0.868 0.108,-1.716 0.168,-2.58 z"
       style="fill:#3d718c"
       inkscape:connector-curvature="0" /><path
       id="path4544"
       d="m 1046.6244,232.5097 c 12.432,-42.072 49.236,-71.46 89.5,-71.46 6.644,0 13.144,1.06 19.488,2.68 0.112,-1.676 0.244,-3.396 0.348,-5.064 0.056,-0.86 0.108,-1.708 0.172,-2.576 l -1.956,-1.944 c -1.072,-1.068 -2.384,-1.888 -3.824,-2.364 -7.98,-2.652 -16.364,-4.004 -24.896,-4.004 -40.268,0 -77.072,29.388 -89.5,71.468 -9.744,32.992 -4.068,67.268 15.564,94.048 0.464,0.628 1.02,1.224 1.62,1.716 l 3.444,2.884 c -14.944,-25.3 -18.672,-55.832 -9.96,-85.384 z"
       style="fill:#90b3c6"
       inkscape:connector-curvature="0" /><g
       transform="translate(791.86441,-49.898305)"
       id="g4550"><path
         id="path4546"
         d="m 259.656,363.192 c 0.464,0.628 1.02,1.224 1.62,1.716 l 3.444,2.884 c -5.996,-10.144 -10.152,-21.14 -12.456,-32.572 -1.96,1.096 -3.976,2.136 -6.04,3.124 3.312,8.756 7.772,17.124 13.432,24.848 z"
         style="fill:#86a6b8"
         inkscape:connector-curvature="0" /><path
         id="path4548"
         d="m 362.312,204.048 c -1.072,-1.068 -2.384,-1.888 -3.824,-2.364 -6.556,-2.176 -13.392,-3.428 -20.348,-3.824 -1.608,4.532 -3.244,9.18 -4.912,13.912 3.64,-0.488 7.312,-0.82 11.032,-0.82 6.644,0 13.144,1.06 19.492,2.68 0.108,-1.676 0.24,-3.396 0.344,-5.064 0.056,-0.868 0.108,-1.716 0.168,-2.58 z"
         style="fill:#86a6b8"
         inkscape:connector-curvature="0" /></g><path
       id="path4552"
       d="m 1137.5084,92.701695 c 0,10.776005 -8.74,19.527995 -19.508,19.527995 -10.796,0 -19.552,-8.752 -19.552,-19.527995 0,-10.784 8.752,-19.528 19.552,-19.528 10.78,0 19.508,8.744 19.508,19.528 z"
       style="fill:#f5f5f5"
       inkscape:connector-curvature="0" /><circle
       id="circle4554"
       r="9.7639999"
       cy="92.701698"
       cx="1117.9844"
       style="fill:#242424" /><path
       id="path4556"
       d="m 1159.8644,78.101695 c 0,7.272 1.664,14.14 4.56,20.316 3.216,-8.324 7.808,-13.988 14.652,-15.804 3.872,-1.032 16.788,-4.512 20.788,-4.512 -9.532,-7.624 -21.8,-15.232 -35.052,-21.124 -3.136,6.38 -4.948,13.536 -4.948,21.124 z"
       style="fill:#e78244"
       inkscape:connector-curvature="0" /><path
       id="path4558"
       d="m 1161.1284,88.917695 c 0.768,3.308 1.884,6.488 3.288,9.5 0.016,-0.04 0.032,-0.072 0.052,-0.108 0.416,-1.064 0.852,-2.084 1.308,-3.056 0.244,-0.504 0.5,-0.976 0.752,-1.46 0.328,-0.62 0.664,-1.22 1.012,-1.796 0.264,-0.436 0.536,-0.868 0.812,-1.276 0.456,-0.676 0.944,-1.308 1.44,-1.912 0.196,-0.232 0.376,-0.496 0.576,-0.716 0.696,-0.78 1.44,-1.468 2.22,-2.108 0.256,-0.212 0.54,-0.4 0.804,-0.596 0.604,-0.444 1.24,-0.848 1.888,-1.208 0.28,-0.156 0.564,-0.312 0.848,-0.452 0.936,-0.448 1.912,-0.84 2.94,-1.116 0.312,-0.084 0.568,-0.268 0.856,-0.384 -7.224,-0.148 -13.372,2.268 -18.796,6.688 z"
       style="fill:#d97a40"
       inkscape:connector-curvature="0" /></g><g
     id="g4560"
     transform="translate(791.86441,-49.898305)" /><g
     id="g4562"
     transform="translate(791.86441,-49.898305)" /><g
     id="g4564"
     transform="translate(791.86441,-49.898305)" /><g
     id="g4566"
     transform="translate(791.86441,-49.898305)" /><g
     id="g4568"
     transform="translate(791.86441,-49.898305)" /><g
     id="g4570"
     transform="translate(791.86441,-49.898305)" /><g
     id="g4572"
     transform="translate(791.86441,-49.898305)" /><g
     id="g4574"
     transform="translate(791.86441,-49.898305)" /><g
     id="g4576"
     transform="translate(791.86441,-49.898305)" /><g
     id="g4578"
     transform="translate(791.86441,-49.898305)" /><g
     id="g4580"
     transform="translate(791.86441,-49.898305)" /><g
     id="g4582"
     transform="translate(791.86441,-49.898305)" /><g
     id="g4584"
     transform="translate(791.86441,-49.898305)" /><g
     id="g4586"
     transform="translate(791.86441,-49.898305)" /><g
     id="g4588"
     transform="translate(791.86441,-49.898305)" /></svg>