<?xml version="1.0" encoding="UTF-8" standalone="no"?>
<!-- Generator: Adobe Illustrator 19.0.0, SVG Export Plug-In . SVG Version: 6.00 Build 0)  -->

<svg
   xmlns:dc="http://purl.org/dc/elements/1.1/"
   xmlns:cc="http://creativecommons.org/ns#"
   xmlns:rdf="http://www.w3.org/1999/02/22-rdf-syntax-ns#"
   xmlns:svg="http://www.w3.org/2000/svg"
   xmlns="http://www.w3.org/2000/svg"
   xmlns:sodipodi="http://sodipodi.sourceforge.net/DTD/sodipodi-0.dtd"
   xmlns:inkscape="http://www.inkscape.org/namespaces/inkscape"
   version="1.1"
   id="Capa_1"
   x="0px"
   y="0px"
   viewBox="0 0 58 58"
   style="enable-background:new 0 0 58 58;"
   xml:space="preserve"
   sodipodi:docname="photo-camera+bird.svg"
   inkscape:version="0.92.1 r15371"><metadata
     id="metadata45"><rdf:RDF><cc:Work
         rdf:about=""><dc:format>image/svg+xml</dc:format><dc:type
           rdf:resource="http://purl.org/dc/dcmitype/StillImage" /><dc:title></dc:title></cc:Work></rdf:RDF></metadata><defs
     id="defs43"><filter
       style="color-interpolation-filters:sRGB;"
       inkscape:label="Drop Shadow"
       id="filter5771"><feFlood
         flood-opacity="0.498039"
         flood-color="rgb(0,0,0)"
         result="flood"
         id="feFlood5761" /><feComposite
         in="flood"
         in2="SourceGraphic"
         operator="in"
         result="composite1"
         id="feComposite5763" /><feGaussianBlur
         in="composite1"
         stdDeviation="0.3"
         result="blur"
         id="feGaussianBlur5765" /><feOffset
         dx="0.5"
         dy="0.5"
         result="offset"
         id="feOffset5767" /><feComposite
         in="SourceGraphic"
         in2="offset"
         operator="over"
         result="composite2"
         id="feComposite5769" /></filter></defs><sodipodi:namedview
     pagecolor="#454545"
     bordercolor="#666666"
     borderopacity="1"
     objecttolerance="10"
     gridtolerance="10"
     guidetolerance="10"
     inkscape:pageopacity="0"
     inkscape:pageshadow="2"
     inkscape:window-width="1858"
     inkscape:window-height="1057"
     id="namedview41"
     showgrid="false"
     inkscape:zoom="5.6568543"
     inkscape:cx="27.726062"
     inkscape:cy="12.595105"
     inkscape:window-x="-30080"
     inkscape:window-y="-32000"
     inkscape:window-maximized="0"
     inkscape:current-layer="Capa_1" /><g
     id="g4702"
     transform="matrix(0.09341618,0,0,0.09341618,181.9783,-75.011586)"
     inkscape:export-xdpi="206.89999"
     inkscape:export-ydpi="206.89999"><path
       id="path4611"
       d="m 332.92096,387.60758 c -8.144,0 -13.887,-4.586 -20.322,-11.88 L 170.084,239.512 c -6.303,-11.212 46.078,-64.068 57.29,-70.373 11.213,-6.304 25.41,-2.323 31.715,8.887 l 94.11196,174.87358 c 6.303,11.212 2.325,25.41 -8.887,31.714 -3.61,2.029 -7.53,2.994 -11.393,2.994 z"
       style="fill:#957856"
       inkscape:connector-curvature="0"
       sodipodi:nodetypes="sccccccs" /><path
       id="path4613"
       d="m 354.8919,368.15347 c -8.144,0 -13.663,-4.426 -20.322,-11.88 L 220.156,248.828 c -6.303,-11.212 46.078,-64.068 57.29,-70.373 11.213,-6.304 42.273,24.4 48.578,35.611 l 53.152,95.644 -4.1251,21.10647 c 5.822,13.202 2.446,28.04 -8.765,34.344 -3.61,2.029 -7.53,2.993 -11.394,2.993 z"
       style="fill:#a78966"
       inkscape:connector-curvature="0"
       sodipodi:nodetypes="scccccccs" /><path
       id="path4615"
       d="m 81.449,46.988 c -1.304,-1.175 -3.14,-1.577 -4.816,-1.054 L 40.549,57.191 c -1.676,0.522 -2.937,1.891 -3.31,3.589 -0.372,1.698 0.203,3.469 1.506,4.644 l 28.08,25.306 c 0.652,0.588 1.437,0.982 2.268,1.164 0.831,0.182 1.709,0.152 2.548,-0.11 1.676,-0.522 2.937,-1.891 3.31,-3.589 l 8.005,-36.562 c 0.372,-1.699 -0.202,-3.469 -1.507,-4.645 z"
       style="fill:#3e3d42"
       inkscape:connector-curvature="0" /><path
       id="path4617"
       d="M 310.711,189.656 C 335.844,254.406 303.728,327.27 238.98,352.403 174.23,377.536 101.366,345.42 76.233,280.672 51.1,215.924 38.55,27.989 103.299,2.857 c 64.749,-25.132 182.279,122.05 207.412,186.799 z"
       style="fill:#b39a7c"
       inkscape:connector-curvature="0" /><path
       id="path4619"
       d="M 103.43,263.564 C 83.718,227.071 63.05,149.144 60.153,81.502 c -10.769,67.235 0.115,158.045 16.078,199.169 25.133,64.75 97.997,96.864 162.746,71.731 21.309,-8.271 39.082,-21.713 52.444,-38.333 -2.098,1.285 -4.237,2.525 -6.428,3.708 -65.107,35.166 -146.396,10.895 -181.563,-54.213 z"
       style="fill:#a0815c"
       inkscape:connector-curvature="0" /><path
       id="path4621"
       d="m 380.472,333.267 c 0,0 7.535,-7.789 -1.298,-23.556 -24.368,-43.497 -82.368,-148.447 -82.368,-148.447 -16.21,-28.096 -32.051,-48.354 -32.051,-48.354 -11.75,-9.944 -26.933,-15.955 -43.53,-15.955 -71.325,0 -65.816,82.151 -65.816,82.151 0,0 -0.098,114.361 127.627,102.215 0,0.041 5.679,10.218 16.119,22.012 13.793,15.581 35.903,33.98 64.241,35.567 3.01,0.122 12.103,-0.012 17.076,-5.633 z"
       style="fill:#957856"
       inkscape:connector-curvature="0" /><g
       id="g4631"><path
         id="path4623"
         d="m 257.408,260.863 c -88.409,-12.239 -88.351,-101.72 -88.351,-101.72 0,0 -1.611,-24.111 8.249,-46.209 -24.728,23.897 -21.897,66.171 -21.897,66.171 0,0 -0.083,100.335 104.877,103.058 z"
         style="fill:#806749"
         inkscape:connector-curvature="0" /><path
         id="path4625"
         d="m 243.687,216.614 c 0,0 -2.626,-4.834 -6.356,-3.768 -4.497,1.285 -2.707,8.001 -2.707,8.001 l 16.712,60.822 c 9.582,0.802 20.108,0.754 31.699,-0.349 z"
         style="fill:#806749"
         inkscape:connector-curvature="0" /><path
         id="path4627"
         d="m 329.713,295.846 c -2.635,0 -5.207,-1.326 -6.691,-3.733 l -55.477,-90.019 c -2.275,-3.691 -1.126,-8.527 2.564,-10.801 3.689,-2.273 8.527,-1.126 10.801,2.564 l 55.477,90.019 c 2.275,3.691 1.126,8.527 -2.565,10.801 -1.281,0.792 -2.703,1.169 -4.109,1.169 z"
         style="fill:#806749"
         inkscape:connector-curvature="0" /><path
         id="path4629"
         d="m 161.929,382.44 c -1.835,0 -3.677,-0.638 -5.167,-1.942 -3.263,-2.855 -3.594,-7.815 -0.739,-11.078 0.517,-0.59 12.87,-14.475 31.071,-15.081 11.606,-0.398 22.649,4.559 32.79,14.699 3.066,3.067 3.066,8.037 0,11.103 -3.067,3.065 -8.037,3.065 -11.103,0 -6.944,-6.945 -14.053,-10.343 -21.165,-10.11 -11.287,0.376 -19.694,9.635 -19.777,9.728 -1.551,1.775 -3.724,2.681 -5.91,2.681 z"
         style="fill:#806749"
         inkscape:connector-curvature="0" /></g><path
       id="path4633"
       d="m 126.291,55.498 c -2.009,0 -4.018,-0.766 -5.551,-2.299 -2.671,-2.671 -5.274,-3.969 -7.957,-3.969 -0.015,0 -0.028,0 -0.044,0 -4.659,0.024 -8.714,3.871 -8.752,3.91 -3.032,3.096 -8.002,3.151 -11.102,0.117 -3.098,-3.032 -3.151,-8.003 -0.117,-11.102 0.858,-0.876 8.708,-8.567 19.888,-8.626 0.041,0 0.083,0 0.124,0 4.818,0 11.994,1.501 19.062,8.567 3.067,3.066 3.067,8.037 10e-4,11.102 -1.533,1.534 -3.543,2.3 -5.552,2.3 z"
       style="fill:#554431"
       inkscape:connector-curvature="0" /><circle
       id="circle4635"
       r="14.51"
       cy="70.932999"
       cx="149.179"
       style="fill:#db6378;fill-opacity:1" /><g
       id="g4637" /><g
       id="g4639" /><g
       id="g4641" /><g
       id="g4643" /><g
       id="g4645" /><g
       id="g4647" /><g
       id="g4649" /><g
       id="g4651" /><g
       id="g4653" /><g
       id="g4655" /><g
       id="g4657" /><g
       id="g4659" /><g
       id="g4661" /><g
       id="g4663" /><g
       id="g4665" /></g><g
     id="g10" /><g
     id="g12" /><g
     id="g14" /><g
     id="g16" /><g
     id="g18" /><g
     id="g20" /><g
     id="g22" /><g
     id="g24" /><g
     id="g26" /><g
     id="g28" /><g
     id="g30" /><g
     id="g32" /><g
     id="g34" /><g
     id="g36" /><g
     id="g38" /><g
     id="g6213"
     inkscape:export-xdpi="413.79001"
     inkscape:export-ydpi="413.79001"><rect
       inkscape:export-ydpi="344.82999"
       inkscape:export-xdpi="344.82999"
       y="8.4583311"
       x="3.9332814"
       height="2.2980971"
       width="7.4688153"
       id="rect4720"
       style="opacity:0.98000004;fill:#ffffff;fill-opacity:1;stroke:none;stroke-width:0.60000002;stroke-miterlimit:4;stroke-dasharray:none;stroke-opacity:1;" /><path
       inkscape:export-ydpi="344.82999"
       inkscape:export-xdpi="344.82999"
       id="path2"
       d="M 3.3691406 10 C 1.5111406 10 -5.9211895e-016 11.511141 0 13.369141 L 0 48.630859 C 0 50.488859 1.5111406 52 3.3691406 52 L 16.472656 52 C 15.532648 51.392402 14.636999 50.724559 13.789062 50 L 3.3691406 50 C 2.6131406 50 2 49.386859 2 48.630859 L 2 13.369141 C 2 12.613141 2.6131406 12 3.3691406 12 L 13.789062 12 C 14.636999 11.275441 15.532648 10.607598 16.472656 10 L 3.3691406 10 z M 43.527344 10 C 44.467352 10.607598 45.363001 11.275441 46.210938 12 L 54.630859 12 C 55.386859 12 56 12.613141 56 13.369141 L 56 48.630859 C 56 49.386859 55.386859 50 54.630859 50 L 46.210938 50 C 45.363001 50.724559 44.467352 51.392402 43.527344 52 L 54.630859 52 C 56.488859 52 58 50.488859 58 48.630859 L 58 13.369141 C 58 11.511141 56.488859 10 54.630859 10 L 43.527344 10 z "
       style="fill:#ffffff;fill-opacity:1;stroke:none" /><path
       inkscape:export-ydpi="344.82999"
       inkscape:export-xdpi="344.82999"
       sodipodi:nodetypes="ccccc"
       inkscape:connector-curvature="0"
       id="rect4718"
       d="m 47.652344,13.320312 c 1.247034,1.245126 2.356855,2.625438 3.320312,4.109376 h 3.519532 v -4.109376 z"
       style="opacity:0.98000004;fill:#ffffff;fill-opacity:1;stroke:none;stroke-width:0.60000002;stroke-miterlimit:4;stroke-dasharray:none;stroke-opacity:1;" /><g
       inkscape:export-ydpi="344.82999"
       inkscape:export-xdpi="344.82999"
       transform="matrix(0.10199848,0,0,0.10199848,13.462781,9.462998)"
       id="g4713"
       style="fill:#ffffff;fill-opacity:1;stroke:none"><path
         style="fill:#ffffff;fill-opacity:1;stroke:none;"
         inkscape:connector-curvature="0"
         d="m 349.392,188.25 c -2.426,-0.821 -8.947,-3.453 -10.738,-6.017 -0.285,-0.407 -0.728,-1.284 -1.289,-2.394 -3.296,-6.524 -11.016,-21.802 -26.605,-21.802 -2.451,0 -5.021,0.387 -7.64,1.151 -14.655,4.276 -21.688,13.998 -26.822,21.096 -2.957,4.088 -5.293,7.317 -7.924,7.822 -0.828,0.159 -1.604,0.239 -2.308,0.239 -2.51,0 -3.916,-0.954 -4.179,-2.836 -0.988,-7.069 -0.762,-15.884 -0.523,-25.217 0.395,-15.439 0.842,-32.938 -4.291,-46.667 -8.368,-22.384 -27.05,-40.417 -42.062,-54.906 -3.751,-3.621 -7.294,-7.041 -10.332,-10.185 -1.167,-1.441 -2.38,-2.752 -3.553,-4.021 -1.703,-1.841 -3.312,-3.58 -4.486,-5.411 -5.038,-7.854 -8.567,-16.764 -11.617,-25.18 -0.289,-0.921 -0.576,-1.85 -0.86,-2.788 C 183.707,9.631 183.205,8.485 182.63,7.635 180.969,3.657 179.012,0 175.992,0 c -0.471,0 -0.955,0.092 -1.436,0.274 -5.193,1.964 -6.333,12.733 -7.34,22.235 -0.517,4.88 -1.005,9.49 -1.956,11.755 -1.228,2.925 -3.132,4.655 -5.148,6.485 -2.384,2.165 -4.849,4.403 -6.003,8.625 -1.154,4.218 0.002,6.646 1.121,8.993 0.941,1.977 1.831,3.843 1.347,6.955 -0.507,3.266 -2.082,5.03 -3.749,6.899 -1.777,1.992 -3.616,4.052 -3.929,7.821 -0.324,3.892 1.723,6.419 3.703,8.864 1.731,2.137 3.366,4.156 3.326,7.028 -0.034,2.437 -1.478,3.65 -3.305,5.186 -2.394,2.011 -5.373,4.514 -4.396,10.538 0.646,3.98 3.274,6.058 5.593,7.891 2.23,1.763 3.593,2.946 3.494,4.957 -0.075,1.529 -0.546,3.163 -1.044,4.892 -1.19,4.128 -2.539,8.807 0.952,13.935 1.258,1.848 5.446,5.553 10.098,9.346 -12.772,-5.85 -31.741,-13.234 -51.577,-16.347 -32.537,-5.105 -64.092,-17.726 -81.045,-24.507 -7.98,-3.192 -11.569,-4.604 -12.984,-4.604 -0.917,0 -1.219,0.563 -1.307,0.806 -0.337,0.933 0.472,1.811 2.414,3.424 l 5.224,4.335 c 7.007,5.81 12.506,10.369 14.843,12.663 -1.142,-0.406 -2.777,-1.072 -4.896,-1.992 -1.119,-0.486 -2.018,-0.294 -2.515,0.431 -0.239,0.349 -0.355,0.79 -0.355,1.347 0,6.184 17.809,36.595 42.411,65.938 17.756,21.176 51.869,56.702 80.841,56.702 1.729,0 3.43,-0.127 5.085,-0.379 -11.521,11.92 -53.4,43.329 -90.531,58.741 -44.868,18.624 -65.123,28.194 -66.54,35.67 -0.322,1.699 0.266,3.287 1.748,4.719 1.973,1.906 3.814,2.793 5.795,2.793 1.398,0 2.681,-0.447 3.921,-0.879 1.27,-0.442 2.583,-0.9 4.069,-0.9 1.66,0 3.384,0.581 5.269,1.775 4.705,2.979 10.355,6.159 17.896,6.159 7.856,0 16.524,-3.437 26.5,-10.507 1.869,-1.324 3.564,-1.915 5.499,-1.915 1.092,0 2.163,0.182 3.295,0.374 1.234,0.209 2.511,0.426 3.923,0.426 0,0 0,0 0,0 3.211,0 6.267,-1.195 9.614,-3.761 24.697,-18.93 51.629,-22.474 80.144,-26.227 33.636,-4.427 68.417,-9.004 105.821,-37.771 31.833,-24.481 38.115,-45.503 42.273,-59.415 0.438,-1.465 0.85,-2.846 1.266,-4.135 4.165,-12.91 6.607,-15.926 9.657,-16.975 2.023,-0.696 7.031,-2.719 11.45,-4.503 3.109,-1.255 5.795,-2.34 6.539,-2.596 1.097,-0.377 1.227,-1.049 1.207,-1.417 -0.022,-0.376 -0.07,-1.255 -2.882,-1.902 z"
         id="path4658" /><g
         style="fill:#ffffff;fill-opacity:1;stroke:none;"
         id="g4660" /><g
         style="fill:#ffffff;fill-opacity:1;stroke:none;"
         id="g4662" /><g
         style="fill:#ffffff;fill-opacity:1;stroke:none;"
         id="g4664" /><g
         style="fill:#ffffff;fill-opacity:1;stroke:none;"
         id="g4666" /><g
         style="fill:#ffffff;fill-opacity:1;stroke:none;"
         id="g4668" /><g
         style="fill:#ffffff;fill-opacity:1;stroke:none;"
         id="g4670" /><g
         style="fill:#ffffff;fill-opacity:1;stroke:none;"
         id="g4672" /><g
         style="fill:#ffffff;fill-opacity:1;stroke:none;"
         id="g4674" /><g
         style="fill:#ffffff;fill-opacity:1;stroke:none;"
         id="g4676" /><g
         style="fill:#ffffff;fill-opacity:1;stroke:none;"
         id="g4678" /><g
         style="fill:#ffffff;fill-opacity:1;stroke:none;"
         id="g4680" /><g
         style="fill:#ffffff;fill-opacity:1;stroke:none;"
         id="g4682" /><g
         style="fill:#ffffff;fill-opacity:1;stroke:none;"
         id="g4684" /><g
         style="fill:#ffffff;fill-opacity:1;stroke:none;"
         id="g4686" /><g
         style="fill:#ffffff;fill-opacity:1;stroke:none;"
         id="g4688" /></g><path
       inkscape:export-ydpi="344.82999"
       inkscape:export-xdpi="344.82999"
       style="stroke-width:1.47022951;fill:#ffffff;fill-opacity:1;stroke:none"
       d="M 30,6.0060979 C 16.218068,6.0060979 5.0060979,17.218068 5.0060979,31 5.0060979,44.781932 16.218068,55.993902 30,55.993902 43.781932,55.993902 54.993902,44.781932 54.993902,31 54.993902,17.218068 43.781932,6.0060979 30,6.0060979 Z M 30,53.053443 C 17.839732,53.053443 7.946557,43.160268 7.946557,31 7.946557,18.839732 17.839732,8.946557 30,8.946557 42.160268,8.946557 52.053443,18.839732 52.053443,31 52.053443,43.160268 42.160268,53.053443 30,53.053443 Z"
       id="path4"
       inkscape:connector-curvature="0" /></g></svg>