<?xml version="1.0" encoding="UTF-8" standalone="no"?>
<!-- Generator: Adobe Illustrator 19.0.0, SVG Export Plug-In . SVG Version: 6.00 Build 0)  -->

<svg
   xmlns:dc="http://purl.org/dc/elements/1.1/"
   xmlns:cc="http://creativecommons.org/ns#"
   xmlns:rdf="http://www.w3.org/1999/02/22-rdf-syntax-ns#"
   xmlns:svg="http://www.w3.org/2000/svg"
   xmlns="http://www.w3.org/2000/svg"
   xmlns:xlink="http://www.w3.org/1999/xlink"
   xmlns:sodipodi="http://sodipodi.sourceforge.net/DTD/sodipodi-0.dtd"
   xmlns:inkscape="http://www.inkscape.org/namespaces/inkscape"
   version="1.1"
   id="Capa_1"
   x="0px"
   y="0px"
   viewBox="0 0 58 58"
   style="enable-background:new 0 0 58 58;"
   xml:space="preserve"
   sodipodi:docname="photo-camera+bird.svg"
   inkscape:version="0.92.1 r15371"><metadata
     id="metadata45"><rdf:RDF><cc:Work
         rdf:about=""><dc:format>image/svg+xml</dc:format><dc:type
           rdf:resource="http://purl.org/dc/dcmitype/StillImage" /><dc:title /></cc:Work></rdf:RDF></metadata><defs
     id="defs43"><linearGradient
       inkscape:collect="always"
       id="linearGradient6338"><stop
         style="stop-color:#ffffff;stop-opacity:1"
         offset="0"
         id="stop6334" /><stop
         style="stop-color:#ffffff;stop-opacity:0"
         offset="1"
         id="stop6336" /></linearGradient><linearGradient
       inkscape:collect="always"
       xlink:href="#linearGradient6338"
       id="linearGradient6326"
       x1="51.249996"
       y1="-19.124998"
       x2="10.124998"
       y2="41.125"
       gradientUnits="userSpaceOnUse" /></defs><sodipodi:namedview
     pagecolor="#ffffff"
     bordercolor="#666666"
     borderopacity="1"
     objecttolerance="10"
     gridtolerance="10"
     guidetolerance="10"
     inkscape:pageopacity="0"
     inkscape:pageshadow="2"
     inkscape:window-width="1858"
     inkscape:window-height="1057"
     id="namedview41"
     showgrid="false"
     inkscape:zoom="5.6568545"
     inkscape:cx="23.419479"
     inkscape:cy="24.565634"
     inkscape:window-x="-8"
     inkscape:window-y="-8"
     inkscape:window-maximized="1"
     inkscape:current-layer="Capa_1" /><path
     d="M 53.380128,11.237437 H 4.6198722 c -1.7673928,0 -3.2056586,1.422904 -3.2056586,3.171421 v 33.182284 c 0,1.748517 1.4382658,3.171421 3.2056586,3.171421 H 53.380128 c 1.767393,0 3.205658,-1.422904 3.205658,-3.171421 V 14.408858 c 0,-1.748517 -1.438265,-3.171421 -3.205658,-3.171421 z"
     id="path4706"
     inkscape:connector-curvature="0"
     style="fill:#e24d4d;fill-opacity:1;stroke-width:0.94614059"
     sodipodi:nodetypes="sssssssss"
     inkscape:export-xdpi="206.89999"
     inkscape:export-ydpi="206.89999" /><path
     inkscape:connector-curvature="0"
     id="path2"
     d="M 54.63,10 H 3.37 C 1.512,10 0,11.512 0,13.37 V 48.63 C 0,50.488 1.512,52 3.37,52 H 54.63 C 56.488,52 58,50.488 58,48.63 V 13.37 C 58,11.512 56.488,10 54.63,10 Z M 56,48.63 C 56,49.386 55.386,50 54.63,50 H 3.37 C 2.614,50 2,49.386 2,48.63 V 13.37 C 2,12.614 2.614,12 3.37,12 h 51.26 c 0.756,0 1.37,0.614 1.37,1.37 z"
     inkscape:export-xdpi="206.89999"
     inkscape:export-ydpi="206.89999" /><rect
     style="opacity:0.98000004;fill:#ffffff;fill-opacity:1;stroke:#000000;stroke-width:0.60000002;stroke-miterlimit:4;stroke-dasharray:none;stroke-opacity:1"
     id="rect4718"
     width="9.9878836"
     height="4.1100583"
     x="44.503532"
     y="13.319691"
     inkscape:export-xdpi="206.89999"
     inkscape:export-ydpi="206.89999" /><circle
     style="opacity:0.98000004;fill:#fafafa;fill-opacity:1;stroke:none;stroke-width:0.18897638;stroke-miterlimit:4;stroke-dasharray:none"
     id="path4605"
     cx="30"
     cy="31"
     r="23.807926"
     inkscape:export-xdpi="206.89999"
     inkscape:export-ydpi="206.89999" /><g
     id="g4702"
     transform="matrix(0.09341618,0,0,0.09341618,13.333335,13.626239)"
     inkscape:export-xdpi="206.89999"
     inkscape:export-ydpi="206.89999"><path
       id="path4611"
       d="m 332.92096,387.60758 c -8.144,0 -13.887,-4.586 -20.322,-11.88 L 170.084,239.512 c -6.303,-11.212 46.078,-64.068 57.29,-70.373 11.213,-6.304 25.41,-2.323 31.715,8.887 l 94.11196,174.87358 c 6.303,11.212 2.325,25.41 -8.887,31.714 -3.61,2.029 -7.53,2.994 -11.393,2.994 z"
       style="fill:#957856"
       inkscape:connector-curvature="0"
       sodipodi:nodetypes="sccccccs" /><path
       id="path4613"
       d="m 354.8919,368.15347 c -8.144,0 -13.663,-4.426 -20.322,-11.88 L 220.156,248.828 c -6.303,-11.212 46.078,-64.068 57.29,-70.373 11.213,-6.304 42.273,24.4 48.578,35.611 l 53.152,95.644 -4.1251,21.10647 c 5.822,13.202 2.446,28.04 -8.765,34.344 -3.61,2.029 -7.53,2.993 -11.394,2.993 z"
       style="fill:#a78966"
       inkscape:connector-curvature="0"
       sodipodi:nodetypes="scccccccs" /><path
       id="path4615"
       d="m 81.449,46.988 c -1.304,-1.175 -3.14,-1.577 -4.816,-1.054 L 40.549,57.191 c -1.676,0.522 -2.937,1.891 -3.31,3.589 -0.372,1.698 0.203,3.469 1.506,4.644 l 28.08,25.306 c 0.652,0.588 1.437,0.982 2.268,1.164 0.831,0.182 1.709,0.152 2.548,-0.11 1.676,-0.522 2.937,-1.891 3.31,-3.589 l 8.005,-36.562 c 0.372,-1.699 -0.202,-3.469 -1.507,-4.645 z"
       style="fill:#3e3d42"
       inkscape:connector-curvature="0" /><path
       id="path4617"
       d="M 310.711,189.656 C 335.844,254.406 303.728,327.27 238.98,352.403 174.23,377.536 101.366,345.42 76.233,280.672 51.1,215.924 38.55,27.989 103.299,2.857 c 64.749,-25.132 182.279,122.05 207.412,186.799 z"
       style="fill:#b39a7c"
       inkscape:connector-curvature="0" /><path
       id="path4619"
       d="M 103.43,263.564 C 83.718,227.071 63.05,149.144 60.153,81.502 c -10.769,67.235 0.115,158.045 16.078,199.169 25.133,64.75 97.997,96.864 162.746,71.731 21.309,-8.271 39.082,-21.713 52.444,-38.333 -2.098,1.285 -4.237,2.525 -6.428,3.708 -65.107,35.166 -146.396,10.895 -181.563,-54.213 z"
       style="fill:#a0815c"
       inkscape:connector-curvature="0" /><path
       id="path4621"
       d="m 380.472,333.267 c 0,0 7.535,-7.789 -1.298,-23.556 -24.368,-43.497 -82.368,-148.447 -82.368,-148.447 -16.21,-28.096 -32.051,-48.354 -32.051,-48.354 -11.75,-9.944 -26.933,-15.955 -43.53,-15.955 -71.325,0 -65.816,82.151 -65.816,82.151 0,0 -0.098,114.361 127.627,102.215 0,0.041 5.679,10.218 16.119,22.012 13.793,15.581 35.903,33.98 64.241,35.567 3.01,0.122 12.103,-0.012 17.076,-5.633 z"
       style="fill:#957856"
       inkscape:connector-curvature="0" /><g
       id="g4631"><path
         id="path4623"
         d="m 257.408,260.863 c -88.409,-12.239 -88.351,-101.72 -88.351,-101.72 0,0 -1.611,-24.111 8.249,-46.209 -24.728,23.897 -21.897,66.171 -21.897,66.171 0,0 -0.083,100.335 104.877,103.058 z"
         style="fill:#806749"
         inkscape:connector-curvature="0" /><path
         id="path4625"
         d="m 243.687,216.614 c 0,0 -2.626,-4.834 -6.356,-3.768 -4.497,1.285 -2.707,8.001 -2.707,8.001 l 16.712,60.822 c 9.582,0.802 20.108,0.754 31.699,-0.349 z"
         style="fill:#806749"
         inkscape:connector-curvature="0" /><path
         id="path4627"
         d="m 329.713,295.846 c -2.635,0 -5.207,-1.326 -6.691,-3.733 l -55.477,-90.019 c -2.275,-3.691 -1.126,-8.527 2.564,-10.801 3.689,-2.273 8.527,-1.126 10.801,2.564 l 55.477,90.019 c 2.275,3.691 1.126,8.527 -2.565,10.801 -1.281,0.792 -2.703,1.169 -4.109,1.169 z"
         style="fill:#806749"
         inkscape:connector-curvature="0" /><path
         id="path4629"
         d="m 161.929,382.44 c -1.835,0 -3.677,-0.638 -5.167,-1.942 -3.263,-2.855 -3.594,-7.815 -0.739,-11.078 0.517,-0.59 12.87,-14.475 31.071,-15.081 11.606,-0.398 22.649,4.559 32.79,14.699 3.066,3.067 3.066,8.037 0,11.103 -3.067,3.065 -8.037,3.065 -11.103,0 -6.944,-6.945 -14.053,-10.343 -21.165,-10.11 -11.287,0.376 -19.694,9.635 -19.777,9.728 -1.551,1.775 -3.724,2.681 -5.91,2.681 z"
         style="fill:#806749"
         inkscape:connector-curvature="0" /></g><path
       id="path4633"
       d="m 126.291,55.498 c -2.009,0 -4.018,-0.766 -5.551,-2.299 -2.671,-2.671 -5.274,-3.969 -7.957,-3.969 -0.015,0 -0.028,0 -0.044,0 -4.659,0.024 -8.714,3.871 -8.752,3.91 -3.032,3.096 -8.002,3.151 -11.102,0.117 -3.098,-3.032 -3.151,-8.003 -0.117,-11.102 0.858,-0.876 8.708,-8.567 19.888,-8.626 0.041,0 0.083,0 0.124,0 4.818,0 11.994,1.501 19.062,8.567 3.067,3.066 3.067,8.037 10e-4,11.102 -1.533,1.534 -3.543,2.3 -5.552,2.3 z"
       style="fill:#554431"
       inkscape:connector-curvature="0" /><circle
       id="circle4635"
       r="14.51"
       cy="70.932999"
       cx="149.179"
       style="fill:#db6378;fill-opacity:1" /><g
       id="g4637" /><g
       id="g4639" /><g
       id="g4641" /><g
       id="g4643" /><g
       id="g4645" /><g
       id="g4647" /><g
       id="g4649" /><g
       id="g4651" /><g
       id="g4653" /><g
       id="g4655" /><g
       id="g4657" /><g
       id="g4659" /><g
       id="g4661" /><g
       id="g4663" /><g
       id="g4665" /></g><circle
     inkscape:export-ydpi="206.89999"
     inkscape:export-xdpi="206.89999"
     r="23.807926"
     cy="31"
     cx="30"
     id="circle4532"
     style="opacity:0.98000004;fill:url(#linearGradient6326);fill-opacity:1;stroke:none;stroke-width:0.18897638;stroke-miterlimit:4;stroke-dasharray:none" /><path
     inkscape:connector-curvature="0"
     id="path4"
     d="M 30,6.0060979 C 16.218068,6.0060979 5.0060979,17.218068 5.0060979,31 5.0060979,44.781932 16.218068,55.993902 30,55.993902 43.781932,55.993902 54.993902,44.781932 54.993902,31 54.993902,17.218068 43.781932,6.0060979 30,6.0060979 Z M 30,53.053443 C 17.839732,53.053443 7.946557,43.160268 7.946557,31 7.946557,18.839732 17.839732,8.946557 30,8.946557 42.160268,8.946557 52.053443,18.839732 52.053443,31 52.053443,43.160268 42.160268,53.053443 30,53.053443 Z"
     style="stroke-width:1.47022951"
     inkscape:export-xdpi="206.89999"
     inkscape:export-ydpi="206.89999" /><g
     id="g10" /><g
     id="g12" /><g
     id="g14" /><g
     id="g16" /><g
     id="g18" /><g
     id="g20" /><g
     id="g22" /><g
     id="g24" /><g
     id="g26" /><g
     id="g28" /><g
     id="g30" /><g
     id="g32" /><g
     id="g34" /><g
     id="g36" /><g
     id="g38" /><circle
     style="opacity:0.98000004;fill:#ffffff;fill-opacity:0.71875;stroke:#e7e7e7;stroke-width:0.14707798;stroke-miterlimit:4;stroke-dasharray:none;stroke-opacity:0.19642857"
     id="path4708"
     cx="37.374943"
     cy="18.727083"
     r="6.3699899"
     inkscape:export-xdpi="206.89999"
     inkscape:export-ydpi="206.89999" /><rect
     style="opacity:0.98000004;fill:#000000;fill-opacity:1;stroke:#000000;stroke-width:0.60000002;stroke-miterlimit:4;stroke-dasharray:none;stroke-opacity:1"
     id="rect4720"
     width="7.4688153"
     height="2.2980971"
     x="3.9332814"
     y="8.4583311"
     inkscape:export-xdpi="206.89999"
     inkscape:export-ydpi="206.89999" /></svg>